<?xml version="1.0" ?>
<!-- Uploaded to: SVG Repo, www.svgrepo.com, Generator: SVG Repo Mixer Tools -->
<svg width="800px" height="800px" viewBox="0 0 24 24" xmlns="http://www.w3.org/2000/svg">
<defs>
<style>.cls-1{fill:#f19b5f;}.cls-2{fill:#ffce69;}.cls-3{fill:#ed960a;}.cls-4{fill:#6c2e7c;}</style>
</defs>
<g id="Icons">
<rect class="cls-1" height="18" rx="3" width="22" x="1" y="3"/>
<rect class="cls-2" height="13" rx="3" width="22" x="1" y="3"/>
<path class="cls-3" d="M15.717,12.029l3.956-3.6a1,1,0,0,0-1.346-1.48L13.35,11.479a2.005,2.005,0,0,1-2.7,0L5.673,6.95A1,1,0,1,0,4.327,8.43l3.957,3.6L4.328,15.62A1,1,0,1,0,5.672,17.1l4.143-3.76a3.937,3.937,0,0,0,4.37,0l4.143,3.76a1,1,0,1,0,1.344-1.48Z"/>
</g>
<g data-name="Layer 4" id="Layer_4">
<path class="cls-4" d="M20,2H4A4,4,0,0,0,0,6V18a4,4,0,0,0,4,4H20a4,4,0,0,0,4-4V6A4,4,0,0,0,20,2Zm2,16a2,2,0,0,1-2,2H4a2,2,0,0,1-2-2V6A2,2,0,0,1,4,4H20a2,2,0,0,1,2,2Z"/>
<path class="cls-4" d="M19.74,7.017a1,1,0,0,0-1.413-.067L13.35,11.479a2.005,2.005,0,0,1-2.7,0L5.673,6.95A1,1,0,1,0,4.327,8.43l3.957,3.6L4.328,15.62A1,1,0,1,0,5.672,17.1l4.143-3.76a3.937,3.937,0,0,0,4.37,0l4.143,3.76a1,1,0,1,0,1.344-1.48l-3.955-3.591,3.956-3.6A1,1,0,0,0,19.74,7.017Z"/>
</g>
</svg>